<?xml version="1.0" standalone="no"?>
<!DOCTYPE svg PUBLIC "-//W3C//DTD SVG 20010904//EN"
 "http://www.w3.org/TR/2001/REC-SVG-20010904/DTD/svg10.dtd">
<svg version="1.0" xmlns="http://www.w3.org/2000/svg"
 width="512.000000pt" height="512.000000pt" viewBox="0 0 512.000000 512.000000"
 preserveAspectRatio="xMidYMid meet">
<metadata>
Created by potrace 1.14, written by Peter Selinger 2001-2017
</metadata>
<g transform="translate(0.000000,512.000000) scale(0.100000,-0.100000)"
fill="#000000" stroke="none">
<path d="M1875 5099 c-103 -21 -103 -21 -111 -63 -6 -33 17 -62 153 -202 77
-79 126 -136 145 -169 4 -6 -32 -10 -100 -11 -115 -1 -157 -6 -242 -30 -108
-31 -242 -98 -320 -159 -73 -59 -220 -235 -220 -265 0 -3 -26 -20 -57 -38
-258 -147 -468 -330 -656 -572 -27 -35 -87 -120 -87 -125 0 -2 -12 -21 -26
-42 -23 -33 -106 -189 -109 -203 0 -3 -10 -26 -22 -51 -11 -25 -26 -63 -33
-85 -7 -21 -17 -45 -23 -51 -5 -7 -7 -13 -3 -13 3 0 1 -12 -5 -26 -22 -58 -55
-200 -65 -274 -3 -25 -7 -52 -10 -61 -15 -54 -21 -333 -10 -439 13 -115 39
-261 55 -302 5 -14 7 -28 5 -31 -3 -3 -1 -13 4 -24 5 -10 19 -47 30 -83 81
-259 240 -549 411 -750 26 -30 56 -66 67 -78 23 -28 172 -176 229 -227 22 -20
85 -70 140 -111 55 -41 109 -82 120 -90 11 -8 44 -29 74 -47 29 -18 67 -40 85
-51 254 -152 642 -291 946 -340 19 -3 46 -8 60 -10 244 -43 627 -38 885 10
110 21 162 32 185 39 10 3 28 8 40 10 32 6 228 71 275 90 185 78 311 145 455
240 69 46 134 92 145 102 11 10 34 29 50 42 78 60 215 201 307 316 51 65 168
238 168 250 0 3 10 22 23 43 75 122 181 429 202 585 3 18 7 42 9 54 25 124 25
413 0 583 -9 58 -37 194 -46 220 -3 8 -18 56 -33 105 -15 50 -33 104 -40 120
-39 91 -50 117 -83 185 -58 118 -198 341 -257 406 -5 7 -21 27 -35 45 -27 36
-279 291 -321 325 -200 162 -354 262 -564 364 -117 56 -138 70 -205 140 -83
84 -131 124 -191 157 -22 11 -37 23 -32 26 11 6 151 45 185 51 15 2 31 7 35 9
7 5 63 16 103 21 8 1 29 9 45 17 74 35 25 131 -115 226 -50 33 -168 83 -215
90 -16 2 -46 8 -66 12 -54 12 -194 5 -278 -13 -90 -19 -199 -71 -277 -131 -59
-46 -74 -53 -74 -34 0 34 -168 214 -212 228 -7 2 -20 9 -28 17 -8 7 -58 27
-110 45 -81 27 -111 32 -205 34 -60 1 -128 -2 -150 -6z"/>
</g>
</svg>
